<?xml version="1.0" standalone="no"?>
<!DOCTYPE svg PUBLIC "-//W3C//DTD SVG 20010904//EN"
 "http://www.w3.org/TR/2001/REC-SVG-20010904/DTD/svg10.dtd">
<svg version="1.0" xmlns="http://www.w3.org/2000/svg"
 width="700.000000pt" height="700.000000pt" viewBox="0 0 700.000000 700.000000"
 preserveAspectRatio="xMidYMid meet">
<metadata>
Created by potrace 1.14, written by Peter Selinger 2001-2017
</metadata>
<g transform="translate(0.000000,700.000000) scale(0.100000,-0.100000)"
fill="#000000" stroke="none">
<path d="M3545 6719 c-156 -17 -175 -20 -252 -34 -16 -3 -44 -8 -63 -11 -19
-3 -55 -10 -80 -16 -25 -5 -55 -12 -67 -14 -63 -12 -313 -89 -415 -128 -528
-200 -962 -511 -1323 -947 -11 -13 -31 -40 -45 -59 -13 -19 -27 -37 -30 -40
-15 -11 -130 -192 -176 -275 -92 -166 -133 -260 -149 -346 -2 -9 -8 -34 -14
-55 -13 -44 -37 -196 -48 -300 -13 -127 -5 -495 12 -524 1 -3 6 -30 9 -60 4
-30 13 -80 20 -110 11 -44 14 -49 16 -25 2 33 7 80 15 140 3 22 6 43 6 47 1 4
11 54 24 110 87 398 256 718 515 978 129 129 144 143 250 220 278 201 660 349
996 385 32 4 73 9 89 11 39 6 353 6 385 0 14 -2 51 -7 84 -11 66 -8 83 -10
186 -31 245 -50 522 -166 735 -309 214 -145 322 -181 535 -179 329 2 613 181
745 469 44 97 63 188 60 290 -5 150 -50 259 -154 368 -177 187 -709 391 -1156
442 -27 3 -84 10 -125 15 -91 10 -488 9 -585 -1z"/>
<path d="M2938 5564 c-2 -1 -39 -5 -83 -8 -44 -3 -89 -8 -100 -10 -11 -2 -51
-9 -90 -15 -354 -61 -718 -226 -984 -446 -54 -44 -211 -204 -258 -261 -145
-178 -273 -420 -327 -619 -54 -198 -74 -438 -53 -630 44 -381 235 -759 523
-1035 110 -105 224 -199 224 -185 0 3 -18 29 -39 58 -45 60 -109 185 -139 272
-76 216 -84 419 -28 670 38 172 167 393 319 548 109 110 158 150 264 215 66
41 205 112 218 112 2 0 16 5 32 12 34 13 30 12 123 39 155 43 264 56 481 53
170 -1 216 1 279 17 241 60 444 252 493 466 31 135 17 253 -45 383 -79 164
-255 301 -443 346 -58 14 -356 29 -367 18z"/>
<path d="M2409 4166 c-88 -20 -137 -43 -244 -114 -127 -85 -275 -230 -349
-345 -185 -283 -238 -560 -171 -889 11 -55 68 -205 97 -258 17 -30 40 -71 51
-90 54 -98 196 -251 318 -342 136 -102 329 -193 502 -237 37 -10 67 -16 67
-14 0 2 -15 19 -32 39 -106 116 -212 331 -232 469 -4 23 -9 52 -11 65 -12 59
-7 221 10 300 52 248 198 475 406 631 86 64 129 118 164 204 93 234 -49 490
-315 569 -75 22 -193 28 -261 12z"/>
<path d="M3588 3625 c-2 -2 -21 -5 -43 -8 -131 -16 -270 -118 -345 -253 -89
-162 -119 -429 -75 -667 25 -130 96 -290 161 -359 32 -33 109 -89 127 -92 7
-1 17 -4 22 -7 63 -36 246 -43 325 -12 8 3 20 7 27 9 27 5 121 76 155 117 57
68 111 186 132 283 7 31 -1 39 -46 44 -4 0 -23 7 -42 15 -20 8 -39 15 -44 15
-4 0 -14 -24 -21 -52 -18 -72 -66 -166 -104 -206 -66 -69 -179 -100 -281 -79
-74 16 -175 104 -213 187 -69 149 -84 392 -37 598 35 153 115 254 234 294 57
19 162 16 214 -6 62 -26 121 -96 155 -184 17 -42 34 -77 38 -76 4 0 36 9 71
19 62 18 63 19 56 49 -18 88 -89 211 -155 270 -41 38 -120 80 -168 91 -32 7
-138 14 -143 10z"/>
<path d="M4561 3595 c-7 -8 -111 -337 -125 -395 -3 -8 -25 -81 -50 -162 -25
-82 -67 -214 -92 -295 -83 -269 -154 -501 -154 -507 0 -3 35 -6 78 -6 l77 0
23 78 c13 42 25 84 27 93 7 32 68 234 71 238 2 3 105 5 229 5 l225 1 9 -25 c5
-14 15 -43 21 -65 6 -22 16 -49 21 -60 5 -11 11 -29 12 -40 2 -11 7 -27 10
-35 3 -8 18 -54 32 -102 26 -86 27 -88 57 -88 47 0 32 -7 -77 -34 -133 -34
-263 -56 -420 -73 -92 -10 -483 -10 -610 0 -96 7 -119 10 -195 23 -19 3 -48 8
-65 11 -115 17 -359 86 -500 142 -207 83 -503 254 -610 354 -11 10 -36 32 -57
48 l-36 29 -7 -30 c-8 -37 -10 -255 -2 -267 3 -5 8 -28 12 -52 22 -148 136
-357 268 -492 l55 -57 169 -40 c144 -35 237 -55 364 -76 15 -2 53 -8 85 -11
33 -4 67 -9 77 -11 102 -18 508 -25 667 -11 135 13 261 31 355 54 34 8 29 7
75 17 242 54 541 195 667 315 27 26 43 35 46 27 9 -24 -30 -91 -107 -181 -96
-113 -130 -178 -123 -237 6 -60 20 -91 63 -137 40 -45 55 -52 47 -22 -7 28 35
115 111 229 84 126 116 197 117 258 1 51 -20 115 -48 146 -13 15 -14 22 -3 48
l12 30 207 1 c113 0 215 2 226 4 11 2 36 7 54 10 49 9 126 50 159 85 16 16 38
49 49 72 19 39 36 83 33 83 -1 0 3 13 9 29 16 40 16 172 1 226 -25 91 -80 164
-154 202 -36 18 -38 21 -20 31 27 15 70 65 92 107 30 56 44 133 38 204 -15
175 -119 293 -274 312 -73 9 -481 11 -494 3 -7 -4 -10 -226 -10 -649 l0 -642
-55 -24 c-31 -14 -57 -23 -60 -20 -4 4 -129 374 -137 406 -5 19 -205 629 -213
650 -4 8 -7 17 -7 20 -6 28 -81 247 -88 254 -11 13 -148 14 -157 1z m99 -236
c12 -41 23 -83 25 -94 3 -11 23 -78 45 -150 23 -71 43 -137 45 -145 2 -8 13
-44 24 -80 33 -103 46 -95 -156 -95 -206 1 -189 -17 -142 140 16 55 37 125 46
155 9 30 24 82 34 114 11 32 27 98 36 147 10 48 19 86 20 85 2 -2 12 -36 23
-77z m1150 59 c66 -29 103 -98 102 -191 -1 -107 -56 -178 -148 -193 -32 -5
-270 -9 -324 -5 -13 1 -15 27 -14 179 1 97 2 189 3 204 l1 26 173 -2 c126 -2
181 -7 207 -18z m-7 -569 c58 -14 100 -47 129 -103 31 -58 31 -184 1 -241 -49
-94 -89 -108 -320 -110 -179 -2 -183 -1 -184 19 -1 12 -2 116 -3 231 l-1 210
35 5 c59 8 292 1 343 -11z"/>
<path d="M389 1482 l-196 -2 0 -623 0 -623 816 1 816 0 135 86 135 85 1 458 0
457 -91 54 c-171 100 -193 104 -725 105 -239 0 -493 2 -565 3 -71 1 -218 1
-326 -1z m966 -122 l50 -25 2 -470 2 -470 -46 -35 -46 -34 -209 -1 c-116 0
-215 3 -220 6 -7 5 -11 175 -10 525 0 286 1 523 1 528 1 4 97 6 214 5 203 -4
214 -5 262 -29z"/>
<path d="M3293 1482 l-273 -2 -76 -153 c-69 -138 -168 -332 -455 -895 -55
-106 -99 -194 -99 -195 0 -2 158 -2 352 -2 l352 0 77 185 c42 102 83 200 90
218 l13 32 195 0 196 0 59 -148 c56 -142 85 -209 110 -262 l12 -25 347 0 c191
0 347 3 347 6 0 4 -42 90 -94 190 -51 101 -175 346 -276 544 -101 198 -199
392 -219 430 l-36 70 -175 5 c-96 3 -298 4 -447 2z m252 -532 c37 -91 69 -170
72 -177 4 -9 -33 -12 -146 -11 -132 1 -151 4 -151 18 0 9 4 20 8 25 5 6 38 81
73 167 35 86 67 154 71 150 3 -4 36 -81 73 -172z"/>
<path d="M5268 1482 l-427 -2 2 -623 2 -622 948 0 947 -1 -1 589 -2 589 -22
20 c-13 11 -25 18 -28 17 -2 -2 -12 3 -22 11 -14 12 -56 15 -199 18 -334 5
-768 7 -1198 4z m747 -104 c7 -6 8 -1035 1 -1047 -3 -5 -416 -7 -448 -2 -5 0
-8 240 -8 532 l0 530 224 -3 c123 -2 227 -6 231 -10z"/>
</g>
</svg>
